<?xml version="1.0" encoding="utf-8"?>
<!-- Generator: Adobe Illustrator 16.0.0, SVG Export Plug-In . SVG Version: 6.00 Build 0)  -->
<!DOCTYPE svg PUBLIC "-//W3C//DTD SVG 1.1//EN" "http://www.w3.org/Graphics/SVG/1.1/DTD/svg11.dtd">
<svg version="1.1" id="Layer_1" xmlns="http://www.w3.org/2000/svg" xmlns:xlink="http://www.w3.org/1999/xlink" x="0px" y="0px"
	 width="106.617px" height="106.617px" viewBox="0 0 106.617 106.617" enable-background="new 0 0 106.617 106.617"
	 xml:space="preserve">
<g>
	<path fill="#EEEEEE" d="M53.309,0C23.867,0,0,23.868,0,53.309c0,29.443,23.867,53.309,53.309,53.309
		c29.442,0,53.309-23.866,53.309-53.309C106.617,23.868,82.751,0,53.309,0L53.309,0z M53.309,26.654c3.68,0,6.663,2.984,6.663,6.664
		c0,3.682-2.983,6.664-6.663,6.664c-3.681,0-6.664-2.982-6.664-6.664C46.645,29.638,49.628,26.654,53.309,26.654L53.309,26.654z
		 M63.304,79.962H43.312c-1.839,0-3.331-1.49-3.331-3.333c0-1.839,1.491-3.331,3.331-3.331h3.332V53.309h-3.332
		c-1.839,0-3.331-1.491-3.331-3.332c0-1.84,1.491-3.332,3.331-3.332h13.328c1.839,0,3.331,1.492,3.331,3.332v23.323h3.332
		c1.84,0,3.332,1.492,3.332,3.331C66.636,78.473,65.144,79.962,63.304,79.962L63.304,79.962z M63.304,79.962"/>
</g>
</svg>
