<?xml version="1.0" encoding="utf-8"?>
<!-- Generator: Adobe Illustrator 16.0.0, SVG Export Plug-In . SVG Version: 6.00 Build 0)  -->
<!DOCTYPE svg PUBLIC "-//W3C//DTD SVG 1.1//EN" "http://www.w3.org/Graphics/SVG/1.1/DTD/svg11.dtd">
<svg version="1.1" id="Layer_1" xmlns="http://www.w3.org/2000/svg" xmlns:xlink="http://www.w3.org/1999/xlink" x="0px" y="0px"
	 width="558px" height="121px" viewBox="0 0 558 121" enable-background="new 0 0 558 121" xml:space="preserve">
<g>
	<defs>
		<rect id="SVGID_1_" x="-223" y="-151.017" width="1024" height="426.017"/>
	</defs>
	<clipPath id="SVGID_2_">
		<use xlink:href="#SVGID_1_"  overflow="visible"/>
	</clipPath>
	<path clip-path="url(#SVGID_2_)" d="M7.103,78.456v-2.597h9.588V9.445H7.103V6.849H63.18l0.5,18.776h-2.597
		c-0.267-1.331-0.518-2.414-0.751-3.246c-0.235-0.832-0.678-1.997-1.331-3.495c-0.652-1.498-1.462-2.913-2.431-4.245
		c-2.476-3.462-6.287-5.194-11.437-5.194H27.078v30.261h9.288c3.295,0,6.124-1.797,8.488-5.393c0.732-1.131,1.365-2.712,1.897-4.744
		c0.533-2.03,0.8-3.511,0.8-4.444h2.596v31.659H47.55c0-0.932-0.267-2.413-0.8-4.444c-0.532-2.03-1.165-3.612-1.897-4.744
		c-2.33-3.528-5.16-5.293-8.488-5.293h-9.288v33.556H43.95c7.443,0,12.799-2.247,16.071-6.741c1.603-2.164,2.721-4.145,3.354-5.942
		c0.634-1.798,1.218-4.145,1.753-7.041h2.596l-0.3,22.321H7.103z"/>
	<path clip-path="url(#SVGID_2_)" d="M75.115,36.71v-2.396h8.589v-9.788c2.135,0,3.622-0.141,4.462-0.424
		c0.84-0.283,1.399-0.825,1.679-1.623c0.303-0.932,0.628-1.523,0.975-1.773c0.347-0.25,1.087-0.375,2.222-0.375
		c-0.767,4.828-1.149,9.488-1.149,13.983h11.285v2.396H91.893v32.259c0,2.297,0.464,3.888,1.393,4.769
		c0.929,0.883,2.355,1.323,4.279,1.323c2.056,0,3.654-1.031,4.798-3.096c1.143-2.064,1.798-4.428,1.964-7.091h2.597
		c-0.135,1.864-0.473,3.62-1.012,5.268c-0.54,1.648-1.281,3.172-2.226,4.569c-0.944,1.398-2.191,2.505-3.743,3.32
		c-1.551,0.815-3.321,1.224-5.31,1.224c-1.445,0-2.796-0.184-4.055-0.549c-1.26-0.366-2.418-0.949-3.475-1.748
		c-1.058-0.799-1.888-1.905-2.493-3.32c-0.604-1.415-0.906-3.071-0.906-4.969V36.71H75.115z"/>
	<path clip-path="url(#SVGID_2_)" d="M114.562,78.456v-2.396h7.091V6.15h-7.091V3.753h15.28V44.8l0.6,0.149
		c1.598-3.727,3.736-6.566,6.417-8.514c2.679-1.947,5.733-2.92,9.163-2.92c4.127,0,7.34,1.415,9.637,4.244
		c2.097,2.596,3.146,6.042,3.146,10.337v27.964h7.091v2.396h-22.371v-2.396h7.091V46.298c0-6.125-2.731-9.189-8.19-9.189
		c-2.131,0-4.028,0.717-5.692,2.148c-1.665,1.431-3.03,3.229-4.095,5.393c-1.098,2.197-1.84,4.261-2.223,6.192
		c-0.382,1.931-0.574,4.278-0.574,7.041v18.177h7.091v2.396H114.562z"/>
	<path clip-path="url(#SVGID_2_)" d="M173.087,78.456v-2.396h7.091V36.71h-7.091v-2.397h15.28V44.8l0.6,0.149
		c1.598-3.727,3.736-6.566,6.416-8.514c2.68-1.947,5.734-2.92,9.163-2.92c4.128,0,7.341,1.415,9.638,4.244
		c2.097,2.596,3.146,6.042,3.146,10.337v27.964h7.091v2.396H202.05v-2.396h7.091V46.298c0-6.125-2.731-9.189-8.19-9.189
		c-2.131,0-4.028,0.717-5.692,2.148c-1.665,1.431-3.03,3.229-4.095,5.393c-1.098,2.197-1.84,4.261-2.223,6.192
		c-0.382,1.931-0.574,4.278-0.574,7.041v18.177h7.091v2.396H173.087z"/>
	<path clip-path="url(#SVGID_2_)" d="M238.328,72.764c-4.078-4.327-6.117-9.787-6.117-16.379c0-6.592,2.039-12.051,6.117-16.379
		c4.077-4.327,9.096-6.491,15.055-6.491s10.977,2.164,15.056,6.491c4.078,4.328,6.117,9.787,6.117,16.379
		c0,6.592-2.039,12.052-6.117,16.379c-4.079,4.328-9.097,6.491-15.056,6.491S242.405,77.092,238.328,72.764 M244.42,40.854
		c-2.015,3.296-3.021,8.473-3.021,15.53c0,7.058,1.006,12.234,3.021,15.529c2.014,3.296,5.001,4.944,8.963,4.944
		s6.949-1.648,8.964-4.944c2.013-3.295,3.021-8.472,3.021-15.529c0-7.057-1.008-12.234-3.021-15.53
		c-2.015-3.295-5.002-4.943-8.964-4.943S246.434,37.56,244.42,40.854"/>
	<path clip-path="url(#SVGID_2_)" fill="#EA1D76" d="M288.737,54.687h2.197c0.965,5.094,2.847,9.555,5.643,13.383
		c2.099,2.896,4.619,5.152,7.565,6.767c2.946,1.615,6.167,2.422,9.662,2.422c5.094,0,9.08-1.281,11.96-3.845
		c2.879-2.563,4.319-6.075,4.319-10.538c0-4.161-1.466-7.615-4.395-10.361c-2.93-2.746-7.523-4.919-13.782-6.516
		c-2.397-0.599-4.527-1.24-6.392-1.922c-1.865-0.683-3.745-1.574-5.643-2.672c-1.897-1.099-3.471-2.33-4.719-3.696
		c-1.249-1.364-2.265-3.037-3.046-5.018c-0.783-1.981-1.174-4.186-1.174-6.616c0-6.159,1.914-11.136,5.741-14.931
		c3.829-3.795,9.105-5.692,15.831-5.692c2.996,0,5.726,0.516,8.189,1.547c2.43,0.999,4.11,1.499,5.043,1.499
		c1.398,0,2.313-1.016,2.746-3.046h2.197l0.2,18.525h-2.197c-1.132-3.262-2.714-6.392-4.744-9.388
		c-1.231-1.864-2.988-3.421-5.268-4.669c-2.281-1.248-4.553-1.872-6.816-1.872c-4.229,0-7.641,1.215-10.236,3.645
		c-2.597,2.431-3.896,5.36-3.896,8.789c0,1.697,0.365,3.238,1.099,4.619c0.732,1.382,1.614,2.522,2.646,3.42
		c1.031,0.899,2.43,1.757,4.194,2.572c1.765,0.816,3.312,1.432,4.645,1.848c1.331,0.416,3.028,0.907,5.093,1.473
		c3.662,0.999,6.846,2.106,9.55,3.321c2.704,1.215,5.094,2.721,7.17,4.518c2.076,1.798,3.621,3.97,4.633,6.517
		s1.519,5.518,1.519,8.913c0,6.625-2.375,11.977-7.123,16.055c-4.749,4.078-10.58,6.117-17.495,6.117
		c-4.028,0-8.207-1.049-12.534-3.147c-1.897-0.897-3.213-1.347-3.945-1.347c-1.497,0-2.63,0.333-3.395,0.998
		c-0.767,0.667-1.549,1.832-2.348,3.496h-2.197L288.737,54.687z"/>
	<path clip-path="url(#SVGID_2_)" fill="#EA1D76" d="M345.764,36.71v-2.396h8.589v-9.788c2.135,0,3.622-0.141,4.462-0.424
		c0.84-0.283,1.399-0.825,1.68-1.623c0.303-0.932,0.628-1.523,0.975-1.773s1.087-0.375,2.222-0.375
		c-0.767,4.828-1.148,9.488-1.148,13.983h11.284v2.396h-11.284v32.259c0,2.297,0.464,3.888,1.393,4.769
		c0.929,0.883,2.355,1.323,4.279,1.323c2.056,0,3.653-1.031,4.798-3.096c1.143-2.064,1.798-4.428,1.964-7.091h2.597
		c-0.135,1.864-0.473,3.62-1.012,5.268c-0.54,1.648-1.281,3.172-2.226,4.569c-0.944,1.398-2.191,2.505-3.743,3.32
		c-1.551,0.815-3.321,1.224-5.311,1.224c-1.444,0-2.796-0.184-4.055-0.549c-1.26-0.366-2.418-0.949-3.475-1.748
		c-1.059-0.799-1.889-1.905-2.493-3.32s-0.906-3.071-0.906-4.969V36.71H345.764z"/>
	<path clip-path="url(#SVGID_2_)" fill="#EA1D76" d="M385.512,78.456V76.06h7.091V36.71h-7.091v-2.397h15.28V76.06h7.091v2.396
		H385.512z M392.302,15.038c-1.132-1.198-1.696-2.663-1.696-4.394s0.564-3.196,1.696-4.394c1.13-1.198,2.512-1.798,4.146-1.798
		c1.633,0,3.015,0.6,4.146,1.798c1.131,1.198,1.696,2.663,1.696,4.394s-0.565,3.196-1.696,4.394
		c-1.131,1.199-2.513,1.798-4.146,1.798C394.813,16.836,393.432,16.237,392.302,15.038"/>
	<path clip-path="url(#SVGID_2_)" fill="#EA1D76" d="M414.175,36.71v-2.396h8.589v-9.788c2.135,0,3.622-0.141,4.462-0.424
		c0.84-0.283,1.399-0.825,1.679-1.623c0.304-0.932,0.629-1.523,0.976-1.773s1.087-0.375,2.222-0.375
		c-0.767,4.828-1.148,9.488-1.148,13.983h11.285v2.396h-11.285v32.259c0,2.297,0.464,3.888,1.393,4.769
		c0.929,0.883,2.355,1.323,4.279,1.323c2.056,0,3.653-1.031,4.798-3.096c1.143-2.064,1.798-4.428,1.964-7.091h2.597
		c-0.135,1.864-0.473,3.62-1.012,5.268c-0.54,1.648-1.281,3.172-2.226,4.569c-0.944,1.398-2.191,2.505-3.743,3.32
		c-1.551,0.815-3.321,1.224-5.311,1.224c-1.444,0-2.796-0.184-4.055-0.549c-1.26-0.366-2.418-0.949-3.475-1.748
		c-1.059-0.799-1.889-1.905-2.493-3.32s-0.906-3.071-0.906-4.969V36.71H414.175z"/>
	<path clip-path="url(#SVGID_2_)" fill="#EA1D76" d="M454.522,56.884c0-3.096,0.557-6.074,1.673-8.938
		c1.115-2.863,2.639-5.351,4.569-7.465c1.93-2.115,4.252-3.803,6.966-5.069c2.713-1.264,5.601-1.897,8.663-1.897
		c2.413,0,4.617,0.399,6.611,1.198c1.995,0.799,3.568,1.815,4.725,3.046c1.157,1.232,2.036,2.506,2.64,3.82
		c0.604,1.316,0.905,2.572,0.905,3.77c0,1.632-0.449,3.047-1.348,4.245c-0.899,1.198-2.215,1.798-3.945,1.798
		c-1.231,0-2.222-0.333-2.971-0.999s-1.124-1.531-1.124-2.597c0-1.065,0.2-2.197,0.6-3.395c0.399-1.165,0.598-2.347,0.598-3.546
		c0-1.231-0.582-2.364-1.746-3.396c-1.166-1.031-2.931-1.548-5.294-1.548c-3.928,0-6.966,1.798-9.112,5.394
		c-2.147,3.595-3.221,8.322-3.221,14.182c0,6.391,1.164,11.467,3.495,15.229c2.329,3.763,5.759,5.643,10.286,5.643
		c1.779,0,3.383-0.315,4.809-0.948c1.427-0.631,2.576-1.439,3.449-2.422c0.872-0.981,1.603-2.122,2.189-3.421
		c0.588-1.298,0.999-2.571,1.234-3.82c0.234-1.248,0.369-2.504,0.403-3.769h2.597c-0.034,1.597-0.176,3.129-0.427,4.594
		c-0.252,1.465-0.754,2.987-1.508,4.568s-1.7,2.955-2.839,4.119c-1.14,1.166-2.688,2.123-4.648,2.872
		c-1.959,0.749-4.213,1.123-6.758,1.123c-6.425,0-11.609-2.063-15.555-6.191C456.495,68.936,454.522,63.543,454.522,56.884"/>
	<path clip-path="url(#SVGID_2_)" fill="#EA1D76" d="M500.762,78.456v-2.396h7.091V6.15h-7.091V3.753h15.28V44.8l0.6,0.149
		c1.598-3.727,3.736-6.566,6.417-8.514c2.679-1.947,5.733-2.92,9.163-2.92c4.127,0,7.34,1.415,9.637,4.244
		c2.098,2.596,3.146,6.042,3.146,10.337v27.964h7.091v2.396h-22.371v-2.396h7.091V46.298c0-6.125-2.73-9.189-8.189-9.189
		c-2.131,0-4.028,0.717-5.692,2.148c-1.665,1.431-3.03,3.229-4.095,5.393c-1.099,2.197-1.84,4.261-2.224,6.192
		c-0.382,1.931-0.573,4.278-0.573,7.041v18.177h7.091v2.396H500.762z"/>
	<path clip-path="url(#SVGID_2_)" d="M537.321,116.53h-0.709h-1c-1.5,0-2.591-0.361-3.264-1.006c-0.674-0.64-1.137-1.14-1.387-2.3
		h-0.094c-0.127,0.282-0.299,0.634-0.518,1.059c-0.219,0.422-0.557,0.829-1.012,1.223c-0.453,0.391-1.055,0.717-1.807,0.986
		c-0.75,0.265-1.709,0.396-2.865,0.396c-1.316,0-2.367-0.146-3.149-0.444c-0.782-0.299-1.394-0.666-1.832-1.104
		c-0.44-0.438-0.729-0.931-0.869-1.481c-0.142-0.545-0.213-1.058-0.213-1.525c0-1.098,0.22-1.975,0.661-2.631
		c0.438-0.658,1.007-1.183,1.712-1.576c0.706-0.39,1.489-0.709,2.352-0.961c0.858-0.251,1.729-0.519,2.606-0.8
		c1.033-0.343,1.887-0.641,2.562-0.893c0.674-0.251,1.198-0.556,1.573-0.916s0.635-0.605,0.773-1.153
		c0.143-0.549,0.213-1.291,0.213-2.23c0-0.752-0.045-1.427-0.141-2.021c-0.095-0.594-0.269-1.103-0.517-1.527
		c-0.253-0.421-0.61-0.743-1.081-0.963c-0.468-0.218-1.096-0.329-1.88-0.329c-1.032,0-1.887,0.181-2.56,0.542
		c-0.676,0.359-1.009,0.946-1.009,1.761c0,0.532,0.046,1.057,0.14,1.575c0.093,0.517,0.14,0.899,0.14,1.149
		c0,0.439-0.155,0.808-0.47,1.104c-0.311,0.299-0.768,0.446-1.364,0.446c-1.03,0-1.673-0.188-1.925-0.564
		c-0.251-0.373-0.375-0.859-0.375-1.456c0-0.687,0.156-1.346,0.469-1.972c0.314-0.627,0.777-1.183,1.387-1.667
		c0.61-0.487,1.377-0.871,2.303-1.152c0.922-0.281,1.982-0.423,3.172-0.423c1.439,0,2.645,0.18,3.617,0.541
		c0.971,0.36,1.754,0.844,2.349,1.455c0.595,0.612,1.019,1.301,1.27,2.067c0.249,0.768,0.376,1.573,0.376,2.42v11.09
		c0,0.911,0.166,1.603,0.418,1.939c0.258,0.342,0.69,0.587,1.083,0.647c0.145,0.023,0.294,0.04,0.433,0.052
		c0.373,0.032,0.675,0.032,0.675,0.032L537.321,116.53z M530.915,104.721h-0.095c-0.063,0.409-0.579,0.816-1.552,1.222l-3.521,1.408
		c-1.002,0.409-1.771,0.981-2.303,1.717c-0.533,0.736-0.801,1.651-0.801,2.747c0,0.471,0.049,0.957,0.145,1.458
		c0.092,0.501,0.266,0.947,0.515,1.339c0.251,0.393,0.603,0.713,1.058,0.962c0.452,0.251,1.041,0.378,1.761,0.378
		c1.036,0,1.872-0.219,2.517-0.66c0.641-0.437,1.127-0.985,1.455-1.645c0.328-0.656,0.547-1.369,0.658-2.137
		c0.109-0.767,0.164-1.463,0.164-2.091V104.721z"/>
	<path clip-path="url(#SVGID_2_)" d="M485.497,116.53h-1.273h-0.998c-1.504,0-2.593-0.361-3.265-1.006
		c-0.675-0.64-1.137-1.14-1.388-2.3h-0.094c-0.125,0.282-0.297,0.634-0.515,1.059c-0.222,0.422-0.558,0.829-1.011,1.223
		c-0.455,0.391-1.059,0.717-1.811,0.986c-0.752,0.265-1.707,0.396-2.864,0.396c-1.316,0-2.366-0.146-3.148-0.444
		c-0.784-0.299-1.394-0.666-1.833-1.104s-0.729-0.931-0.869-1.481c-0.141-0.545-0.212-1.058-0.212-1.525
		c0-1.098,0.218-1.975,0.657-2.631c0.439-0.658,1.01-1.183,1.714-1.576c0.709-0.39,1.489-0.709,2.351-0.961
		c0.861-0.251,1.73-0.519,2.608-0.8c1.032-0.343,1.888-0.641,2.562-0.893c0.672-0.251,1.197-0.556,1.574-0.916
		c0.373-0.36,0.635-0.605,0.773-1.153c0.142-0.549,0.211-1.291,0.211-2.23c0-0.752-0.047-1.427-0.141-2.021
		c-0.092-0.594-0.264-1.103-0.517-1.527c-0.251-0.421-0.61-0.743-1.081-0.963c-0.469-0.218-1.096-0.329-1.877-0.329
		c-1.035,0-1.892,0.181-2.563,0.542c-0.673,0.359-1.007,0.946-1.007,1.761c0,0.532,0.043,1.057,0.14,1.575
		c0.094,0.517,0.14,0.899,0.14,1.149c0,0.439-0.157,0.808-0.469,1.104c-0.314,0.299-0.768,0.446-1.363,0.446
		c-1.033,0-1.675-0.188-1.925-0.564c-0.253-0.373-0.375-0.859-0.375-1.456c0-0.687,0.154-1.346,0.468-1.972
		c0.312-0.627,0.775-1.183,1.386-1.667c0.61-0.487,1.38-0.871,2.302-1.152c0.924-0.281,1.981-0.423,3.172-0.423
		c1.441,0,2.646,0.18,3.617,0.541c0.971,0.36,1.754,0.844,2.35,1.455c0.595,0.612,1.018,1.301,1.268,2.067
		c0.25,0.768,0.377,1.573,0.377,2.42v11.09c0,0.911,0.166,1.603,0.418,1.939c0.256,0.342,0.689,0.597,1.082,0.647
		c0.41,0.057,1.438,0.052,1.438,0.052L485.497,116.53z M478.526,104.721h-0.092c-0.064,0.409-0.58,0.816-1.553,1.222l-3.521,1.408
		c-1.004,0.409-1.771,0.981-2.305,1.717c-0.531,0.736-0.798,1.651-0.798,2.747c0,0.471,0.046,0.957,0.141,1.458
		s0.265,0.947,0.517,1.339c0.25,0.393,0.603,0.713,1.057,0.962c0.455,0.251,1.043,0.378,1.764,0.378c1.032,0,1.871-0.219,2.514-0.66
		c0.642-0.437,1.125-0.985,1.455-1.645c0.329-0.656,0.548-1.369,0.658-2.137c0.109-0.767,0.164-1.463,0.164-2.091V104.721z"/>
	<path clip-path="url(#SVGID_2_)" d="M521.224,115.347c-0.409,0.313-0.892,0.588-1.455,0.822c-0.566,0.236-1.255,0.352-2.068,0.352
		c-1.504,0-2.592-0.322-3.266-0.963s-1.138-1.137-1.385-2.295h-0.096c-0.126,0.28-0.298,0.634-0.518,1.057
		c-0.218,0.422-0.556,0.83-1.01,1.222c-0.455,0.392-1.057,0.721-1.81,0.985c-0.749,0.266-1.708,0.401-2.864,0.401
		c-1.316,0-2.365-0.15-3.147-0.447c-0.784-0.298-1.396-0.664-1.834-1.103c-0.438-0.439-0.729-0.932-0.868-1.481
		c-0.141-0.546-0.212-1.058-0.212-1.527c0-1.097,0.218-1.972,0.659-2.63c0.438-0.658,1.008-1.183,1.712-1.575
		c0.706-0.391,1.489-0.712,2.351-0.962c0.86-0.253,1.73-0.519,2.608-0.8c1.033-0.345,1.886-0.643,2.56-0.894
		c0.673-0.25,1.199-0.555,1.574-0.915c0.377-0.359,0.635-0.643,0.773-1.189c0.143-0.55,0.213-1.291,0.213-2.231
		c0-0.752-0.047-1.427-0.141-2.021c-0.093-0.594-0.266-1.103-0.516-1.527c-0.25-0.421-0.612-0.743-1.082-0.963
		c-0.469-0.218-1.096-0.329-1.88-0.329c-1.032,0-1.886,0.181-2.558,0.542c-0.676,0.359-1.014,0.947-1.014,1.761
		c0,0.532,0.049,1.057,0.143,1.575c0.095,0.517,0.141,0.899,0.141,1.149c0,0.439-0.156,0.808-0.469,1.104
		c-0.313,0.299-0.77,0.446-1.363,0.446c-1.033,0-1.677-0.188-1.928-0.564c-0.25-0.373-0.375-0.859-0.375-1.456
		c0-0.687,0.156-1.346,0.471-1.972c0.311-0.627,0.775-1.183,1.386-1.667c0.61-0.487,1.377-0.871,2.302-1.152
		c0.924-0.281,1.98-0.423,3.17-0.423c1.441,0,2.648,0.18,3.621,0.541c0.969,0.36,1.752,0.844,2.347,1.455
		c0.593,0.611,1.019,1.301,1.269,2.067c0.251,0.768,0.377,1.573,0.377,2.419v11.123c0,0.908,0.142,1.52,0.423,1.831
		c0.282,0.313,0.688,0.47,1.222,0.47c0.346,0,0.704-0.062,1.082-0.187c0.375-0.126,0.734-0.314,1.078-0.564L521.224,115.347z
		 M513.001,104.759h-0.093c-0.065,0.406-0.581,0.813-1.553,1.22l-3.524,1.412c-1,0.406-1.767,0.979-2.299,1.712
		c-0.535,0.737-0.802,1.655-0.802,2.75c0,0.472,0.049,0.954,0.143,1.457c0.094,0.5,0.267,0.946,0.517,1.338
		c0.25,0.394,0.604,0.713,1.059,0.964c0.452,0.249,1.039,0.377,1.76,0.377c1.035,0,1.873-0.221,2.514-0.659
		c0.643-0.438,1.129-0.987,1.457-1.644c0.33-0.659,0.548-1.37,0.658-2.139c0.109-0.767,0.164-1.464,0.164-2.091V104.759z"/>
	<path clip-path="url(#SVGID_2_)" d="M445.106,111.104c-0.096,0.342-0.274,0.834-0.534,1.471c-0.267,0.637-0.687,1.274-1.262,1.911
		s-1.351,1.196-2.333,1.679c-0.977,0.483-2.244,0.724-3.799,0.724c-1.182,0-2.41-0.187-3.686-0.562
		c-1.275-0.372-2.441-0.97-3.496-1.794c-1.059-0.823-1.921-1.904-2.588-3.241c-0.67-1.336-1.004-3.221-1.004-5.18
		c0-1.521,0.287-2.937,0.864-4.243c0.572-1.307,1.349-2.439,2.331-3.405c0.98-0.962,2.127-1.718,3.451-2.261
		c1.318-0.544,2.729-0.817,4.219-0.817c0.84,0,1.703,0.101,2.59,0.304c0.887,0.202,1.693,0.514,2.426,0.936
		c0.729,0.417,1.334,0.96,1.818,1.629c0.48,0.671,0.721,1.485,0.721,2.45c0,0.653-0.209,1.188-0.629,1.607s-1.018,0.629-1.795,0.629
		c-0.529,0-1.035-0.115-1.518-0.35c-0.482-0.233-0.723-0.628-0.723-1.189c0-0.434,0.11-0.964,0.328-1.584
		c0.219-0.622,0.327-1.136,0.327-1.54c0-0.714-0.358-1.265-1.073-1.652c-0.713-0.393-1.537-0.586-2.473-0.586
		c-0.685,0-1.392,0.087-2.123,0.257c-0.728,0.172-1.396,0.598-2.002,1.282c-0.608,0.685-1.104,1.711-1.494,3.078
		c-0.389,1.368-0.584,3.234-0.584,5.597c0,1.337,0.089,2.832,0.26,4.014c0.17,1.182,0.48,2.214,0.932,3.101
		c0.449,0.886,1.072,1.587,1.865,2.099c0.793,0.514,1.826,0.77,3.1,0.77c1.369,0,2.498-0.202,3.383-0.606
		c0.886-0.405,1.586-0.893,2.098-1.469c0.516-0.576,0.895-1.158,1.142-1.749c0.249-0.591,0.392-0.934,0.515-1.307H445.106z"/>
	<path clip-path="url(#SVGID_2_)" d="M442.778,115.982h3.588v-32.86h-3.588V82.47h7.599v17.236h0.093
		c0.436-1.21,1.18-2.236,2.238-3.076c1.059-0.838,2.441-1.26,4.15-1.26c1.336,0,2.596,0.288,3.779,0.864
		c1.18,0.576,2.221,1.337,3.124,2.286c0.901,0.947,1.616,2.058,2.143,3.333c0.53,1.273,0.795,2.721,0.795,4.119
		c0,1.43-0.3,2.934-0.845,4.223c-0.545,1.291-1.283,2.434-2.217,3.428c-0.932,0.996-2.014,1.79-3.24,2.378
		c-1.229,0.59-2.525,0.888-3.895,0.888c-1.057,0-1.952-0.181-2.678-0.536c-0.735-0.358-1.34-0.786-1.82-1.283
		c-0.484-0.497-0.85-1.01-1.096-1.539c-0.252-0.528-0.438-0.98-0.562-1.353h-0.093l0.029,4.458h-7.506V115.982z M462.034,105.412
		c0-1.429-0.077-2.821-0.23-3.956c-0.156-1.133-0.43-2.106-0.818-2.913c-0.388-0.809-0.931-1.431-1.633-1.865
		c-0.695-0.435-1.592-0.654-2.682-0.654c-1.148,0-2.096,0.203-2.843,0.606s-1.353,0.918-1.818,1.539
		c-0.341,0.436-0.614,0.901-0.815,1.398c-0.203,0.499-0.369,1.089-0.492,1.772c-0.122,0.685-0.209,1.471-0.255,2.355
		c-0.046,0.884-0.07,2.044-0.07,3.254c0,1.027,0.048,2.229,0.204,3.316c0.156,1.091,0.451,2.075,0.887,2.962
		c0.438,0.887,1.05,1.607,1.842,2.167c0.793,0.56,1.841,0.841,3.146,0.841c1.275,0,2.285-0.248,3.031-0.746
		c0.748-0.498,1.309-1.213,1.678-2.146c0.375-0.933,0.607-2.06,0.701-3.382C461.961,108.641,462.034,107.028,462.034,105.412"/>
	<path clip-path="url(#SVGID_2_)" d="M486.559,96.065h15.153l-11.914,19.811h6.369c0.902,0,1.639-0.18,2.215-0.536
		c0.573-0.358,1.041-0.809,1.398-1.352c0.357-0.544,0.639-1.129,0.838-1.75c0.203-0.621,0.396-1.212,0.584-1.772h0.373l-1.002,6.064
		h-15.627l11.916-19.812h-4.383c-0.776,0-1.451,0.023-2.024,0.07c-0.578,0.048-1.099,0.211-1.567,0.491
		c-0.463,0.28-0.898,0.729-1.305,1.351c-0.402,0.623-0.838,1.509-1.305,2.659h-0.371L486.559,96.065z"/>
	<path clip-path="url(#SVGID_2_)" d="M543.876,95.983h-7.903v1h3v15.219v3.781h-1.941l-0.608,1h10.55v-1h-4v-9.18
		c0,0-2.094-0.929-2.172-3.924C540.707,99.195,543.876,95.983,543.876,95.983"/>
	<path clip-path="url(#SVGID_2_)" fill="#EA1D76" d="M552.911,98.481c0-1.873-1.342-3.431-3.114-3.768v-0.003
		c0,0-0.921-0.198-1.835-0.006c-0.571,0.12-1.064,0.292-1.589,0.554c-0.392,0.192-0.763,0.44-0.995,0.631
		c-0.199,0.157-0.457,0.389-0.492,0.424c-4.062,3.745-3.855,9.132-1.1,9.575c1.049,0.121,1.604-0.474,1.615-1.158
		c0.002-0.02,0.002-0.055,0.002-0.085v-0.025c0-0.007,0-0.016-0.002-0.021v-0.02c-0.016-0.264-0.156-0.522-0.355-0.669
		c-0.158-0.117-0.357-0.158-0.571-0.158c-0.443,0-0.806,0.365-0.806,0.811c0,0.446,0.306,0.809,0.806,0.809
		c0.028,0,0.058-0.001,0.086-0.005l-0.002,0.004c0,0-0.058,0.103-0.255,0.154c-0.107,0.027-0.243,0.021-0.243,0.021
		c-0.666,0-1.202-0.539-1.202-1.205c0-0.922,0.689-1.713,1.68-2.064c0.018-0.007,0.034-0.013,0.055-0.018l0.002-0.002
		c0.27-0.088,0.689-0.183,1.188-0.158c0.927,0.043,3.802,0.582,5.231-0.301c1.514-0.936,1.826-2.586,1.828-2.598
		C552.887,98.966,552.911,98.726,552.911,98.481"/>
	<path clip-path="url(#SVGID_2_)" d="M402.278,108.7c0,2.4-0.544,4.315-1.631,5.743s-2.584,2.142-4.49,2.142
		c-1.176,0-2.188-0.235-3.038-0.704c-0.851-0.471-1.537-1.144-2.061-2.023l-0.192,2.416h-1.526v-23.12h1.778v9.604
		c0.533-0.898,1.215-1.593,2.045-2.082s1.818-0.733,2.965-0.733c1.926,0,3.433,0.768,4.52,2.305
		c1.087,1.536,1.631,3.584,1.631,6.143V108.7z M400.484,108.39c0-2.055-0.395-3.724-1.186-5.01c-0.79-1.284-1.961-1.928-3.513-1.928
		c-1.234,0-2.23,0.309-2.987,0.924c-0.755,0.615-1.315,1.404-1.681,2.366v7.279c0.395,0.932,0.985,1.675,1.771,2.226
		s1.762,0.826,2.928,0.826c1.551,0,2.717-0.576,3.497-1.727c0.781-1.151,1.171-2.699,1.171-4.646V108.39z"/>
	<path clip-path="url(#SVGID_2_)" d="M410.637,111.931l0.562,1.912h0.09l4.846-13.605h1.986l-6.966,18.601
		c-0.415,1.086-0.954,2.01-1.615,2.771c-0.662,0.76-1.63,1.141-2.905,1.141c-0.207,0-0.459-0.022-0.756-0.066
		c-0.296-0.045-0.514-0.092-0.651-0.141l0.207-1.482c0.119,0.02,0.308,0.042,0.57,0.066c0.262,0.024,0.452,0.037,0.571,0.037
		c0.771,0,1.388-0.274,1.853-0.822c0.464-0.549,0.859-1.252,1.186-2.112l0.845-2.163l-6.195-15.829h1.972L410.637,111.931z"/>
</g>
</svg>
